<svg width="20" height="20" viewBox="0 0 20 20" fill="none" xmlns="http://www.w3.org/2000/svg">
<path fill-rule="evenodd" clip-rule="evenodd" d="M2.5 3.75C2.5 3.41848 2.6317 3.10054 2.86612 2.86612C3.10054 2.6317 3.41848 2.5 3.75 2.5H16.25C16.5815 2.5 16.8995 2.6317 17.1339 2.86612C17.3683 3.10054 17.5 3.41848 17.5 3.75V5.48833C17.4999 5.93032 17.3242 6.35418 17.0117 6.66667L12.5 11.1783V17.365C12.5 17.5213 12.4601 17.6749 12.384 17.8114C12.3079 17.9479 12.1982 18.0627 12.0653 18.1449C11.9324 18.227 11.7806 18.2739 11.6245 18.2809C11.4684 18.2879 11.3131 18.2549 11.1733 18.185L8.07583 16.6367C7.90281 16.5502 7.75729 16.4172 7.65559 16.2526C7.55388 16.0881 7.50001 15.8984 7.5 15.705V11.1783L2.98833 6.66667C2.67575 6.35418 2.50009 5.93032 2.5 5.48833V3.75ZM4.16667 4.16667V5.48833L8.8 10.1217C8.91621 10.2377 9.0084 10.3756 9.07132 10.5273C9.13423 10.679 9.16663 10.8416 9.16667 11.0058V15.3183L10.8333 16.1517V11.0058C10.8333 10.6742 10.965 10.3558 11.2 10.1225L15.8333 5.4875V4.16667H4.16667Z" fill="white"/>
</svg>
