<svg width="20" height="20" viewBox="0 0 20 20" fill="none" xmlns="http://www.w3.org/2000/svg">
<path d="M3.33268 3.33398L4.99935 6.66732H7.49935L5.83268 3.33398H7.49935L9.16602 6.66732H11.666L9.99935 3.33398H11.666L13.3327 6.66732H15.8327L14.166 3.33398H16.666C17.1243 3.33398 17.5168 3.49732 17.8435 3.82398C18.1702 4.15065 18.3332 4.54287 18.3327 5.00065V15.0007C18.3327 15.459 18.1696 15.8515 17.8435 16.1782C17.5174 16.5048 17.1249 16.6679 16.666 16.6673H3.33268C2.87435 16.6673 2.48213 16.5043 2.15602 16.1782C1.8299 15.852 1.66657 15.4595 1.66602 15.0007V5.00065C1.66602 4.54232 1.82935 4.1501 2.15602 3.82398C2.48268 3.49787 2.8749 3.33454 3.33268 3.33398ZM3.33268 8.33398V15.0007H16.666V8.33398H3.33268Z" fill="white"/>
</svg>
