<svg width="132" height="31" viewBox="0 0 132 31" fill="none" xmlns="http://www.w3.org/2000/svg">
<rect x="0.5" y="0.5" width="131" height="30" stroke="white"/>
<path d="M35.18 12.78H30.7C30.7 12.3267 30.5333 12 30.2 11.8C29.9067 11.6267 29.5133 11.54 29.02 11.54C28.02 11.54 27.4733 11.8133 27.38 12.36C27.38 12.3867 27.38 12.4067 27.38 12.42C27.3667 12.4733 27.36 12.5 27.36 12.5C27.36 12.8333 27.56 13.0933 27.96 13.28C28.3733 13.4533 29.0267 13.6533 29.92 13.88C30.6667 14.08 31.2733 14.26 31.74 14.42C32.22 14.5667 32.6867 14.78 33.14 15.06C33.5933 15.3267 33.96 15.68 34.24 16.12C34.52 16.5467 34.66 17.06 34.66 17.66C34.66 17.9 34.6333 18.1533 34.58 18.42C34.3 20.0467 33.4733 21.28 32.1 22.12C30.7267 22.96 29.02 23.38 26.98 23.38C26.1133 23.38 25.3333 23.2667 24.64 23.04C23.9467 22.8267 23.36 22.5267 22.88 22.14C22.4 21.7533 22.0333 21.3067 21.78 20.8C21.5267 20.28 21.4 19.72 21.4 19.12C21.4 18.9467 21.4133 18.76 21.44 18.56H25.96C25.9733 19.0667 26.1667 19.4467 26.54 19.7C26.8733 19.94 27.3 20.06 27.82 20.06C28.42 20.06 28.9133 19.9667 29.3 19.78C29.6867 19.5933 29.9067 19.3333 29.96 19C29.96 18.9733 29.9667 18.9467 29.98 18.92C29.98 18.88 29.98 18.86 29.98 18.86C29.98 18.5267 29.78 18.2733 29.38 18.1C28.98 17.9267 28.3467 17.7267 27.48 17.5C26.7333 17.3133 26.12 17.1467 25.64 17C25.16 16.84 24.6867 16.62 24.22 16.34C23.7667 16.06 23.4 15.7 23.12 15.26C22.84 14.82 22.7 14.28 22.7 13.64C22.7 13.3867 22.7267 13.1133 22.78 12.82C23.0333 11.34 23.8 10.2067 25.08 9.42C26.3733 8.62 27.9533 8.22 29.82 8.22C30.7667 8.22 31.58 8.33333 32.26 8.56C32.9533 8.77333 33.5133 9.08667 33.94 9.5C34.3667 9.9 34.68 10.38 34.88 10.94C35.08 11.4867 35.18 12.1 35.18 12.78ZM50.8736 14.1H46.3936C46.3936 14.0467 46.3936 13.9933 46.3936 13.94V13.8C46.3936 13.1467 46.2069 12.64 45.8336 12.28C45.4603 11.92 44.9269 11.74 44.2336 11.74C43.3936 11.74 42.6736 12.1 42.0736 12.82C41.4869 13.5267 41.0736 14.5667 40.8336 15.94C40.7403 16.5133 40.6936 17.0133 40.6936 17.44C40.6936 18.1867 40.8669 18.78 41.2136 19.22C41.5603 19.6467 42.1536 19.86 42.9936 19.86C43.7136 19.86 44.3069 19.64 44.7736 19.2C45.2536 18.76 45.6069 18.1667 45.8336 17.42H50.3736C49.8403 19.2733 48.8603 20.7333 47.4336 21.8C46.0203 22.8533 44.3603 23.38 42.4536 23.38C40.4003 23.38 38.8069 22.8667 37.6736 21.84C36.5536 20.8 35.9936 19.3667 35.9936 17.54C35.9936 16.98 36.0469 16.3933 36.1536 15.78C36.3536 14.6333 36.7136 13.5933 37.2336 12.66C37.7669 11.7267 38.4203 10.9267 39.1936 10.26C39.9669 9.59333 40.8203 9.08667 41.7536 8.74C42.6869 8.39333 43.6536 8.22 44.6536 8.22C46.7069 8.22 48.2603 8.68 49.3136 9.6C50.3669 10.5067 50.8936 11.8 50.8936 13.48C50.8936 13.5333 50.8869 13.6333 50.8736 13.78C50.8736 13.9133 50.8736 14.02 50.8736 14.1ZM57.88 11.96L57.38 14.82H59.24C60 14.82 60.58 14.7133 60.98 14.5C61.3933 14.2867 61.64 13.94 61.72 13.46C61.72 13.42 61.7267 13.3667 61.74 13.3C61.7533 13.22 61.76 13.1733 61.76 13.16C61.76 12.76 61.6067 12.46 61.3 12.26C61.0067 12.06 60.6 11.96 60.08 11.96H57.88ZM58.26 17.98H56.82L55.94 23H51.22L53.76 8.6H60.56C62.6267 8.6 64.1 8.84667 64.98 9.34C65.8733 9.83333 66.32 10.62 66.32 11.7C66.32 11.9933 66.2867 12.3267 66.22 12.7C66.06 13.5667 65.72 14.3133 65.2 14.94C64.6933 15.5667 64.02 15.9933 63.18 16.22C63.8733 16.4867 64.3667 16.7667 64.66 17.06C64.9533 17.3533 65.1 17.8667 65.1 18.6C65.1 19 65.0467 19.48 64.94 20.04C64.9133 20.2267 64.8867 20.3933 64.86 20.54C64.7133 21.3667 64.64 21.88 64.64 22.08C64.64 22.4 64.76 22.56 65 22.56L64.92 23H60.14C60.14 22.9733 60.14 22.9267 60.14 22.86C60.1267 22.7533 60.12 22.6667 60.12 22.6C60.12 22.0667 60.1933 21.36 60.34 20.48C60.4333 20.0133 60.48 19.64 60.48 19.36C60.48 18.8533 60.32 18.5 60 18.3C59.68 18.0867 59.1 17.98 58.26 17.98ZM79.1064 23H67.0864L69.6264 8.6H81.3664L80.7664 11.96H73.7464L73.3864 14.02H79.3264L78.7464 17.38H72.8064L72.4064 19.64H79.7064L79.1064 23ZM93.54 23H81.52L84.06 8.6H95.8L95.2 11.96H88.18L87.82 14.02H93.76L93.18 17.38H87.24L86.84 19.64H94.14L93.54 23ZM102.774 8.6L106.534 16.46L106.934 13.18L107.734 8.6H112.254L109.714 23H105.294L101.534 15.16L101.134 18.44L100.334 23H95.8136L98.3536 8.6H102.774Z" fill="#FF3535"/>
</svg>
